<?xml version="1.0" encoding="UTF-8"?>
<svg id="Calque_1" data-name="Calque 1" xmlns="http://www.w3.org/2000/svg" xmlns:xlink="http://www.w3.org/1999/xlink" viewBox="0 0 754 754">
  <defs>
    <style>
      .cls-1 {
        fill: #fff;
      }

      .cls-2 {
        fill: url(#Dégradé_sans_nom_4);
      }
    </style>
    <linearGradient id="Dégradé_sans_nom_4" data-name="Dégradé sans nom 4" x1="83.71" y1="632.83" x2="651.92" y2="137.19" gradientUnits="userSpaceOnUse">
      <stop offset="0" stop-color="#4924bc"/>
      <stop offset=".98" stop-color="#e619ff"/>
    </linearGradient>
  </defs>
  <rect class="cls-2" width="754" height="754" rx="138.59" ry="138.59"/>
  <path class="cls-1" d="M505.94,614.92V154.94c0-10.65-8.63-19.28-19.28-19.28h-10.63c-3.34,0-6.61.87-9.52,2.51l-41.67,36.56c-5.15,2.92-11.43,3.01-16.66.24l-103.43-84.82c-2.78-1.48-5.88-2.25-9.03-2.25h-12.83c-10.65,0-19.28,8.63-19.28,19.28v287.05c-7.74-2.42-16.37-2.89-25.34-.31-16.07,4.62-28.32,18.49-30.78,35.03-4.01,26.92,16.77,50.08,42.92,50.08,21.62,0,39.6-15.85,42.85-36.56h.91l-.61-303.11,107.64,84.62c3.88,2,8.17,3.04,12.53,3.04h0c4.43,0,8.79-1.07,12.7-3.13l48.87-37.25,1.56-.87-1.56,394.85c-6.75-1.97-14.16-2.35-21.77-.68-17.15,3.76-30.57,18.06-33.26,35.41-4.94,31.77,24.67,58.42,57.02,48.14,10.7-3.4,19.88-10.83,24.67-20.98,4.22-8.94,5.54-18.84,3.95-27.58ZM405.93,209.31l-112.4-88.55v-2.64c-.02-6.51,6.87-10.73,12.66-7.74l96.7,79.01c3.89,2.01,8.2,3.05,12.57,3.05h0c4.44,0,8.81-1.08,12.75-3.14l36.05-30.54c5.79-3.04,12.74,1.17,12.72,7.71h0s-53.35,42.58-53.35,42.58c-5.48,3.07-12.13,3.16-17.69.25Z"/>
  <polygon points="329.8 248.77 329.8 248.83 329.71 248.79 329.8 248.77"/>
</svg>