<?xml version="1.0" encoding="UTF-8"?>
<svg id="Calque_1" data-name="Calque 1" xmlns="http://www.w3.org/2000/svg" viewBox="0 0 742.91 421.91">
  <path d="M150.77,265.81V33.81c0-5.37-4.35-9.72-9.72-9.72h-5.36c-1.68,0-3.34.44-4.8,1.27l-21.02,18.44c-2.6,1.47-5.77,1.52-8.4.12L49.31,1.13c-1.4-.74-2.97-1.13-4.56-1.13h-6.47c-5.37,0-9.72,4.35-9.72,9.72v144.78c-3.9-1.22-8.26-1.46-12.78-.16-8.11,2.33-14.28,9.33-15.52,17.67-2.02,13.58,8.46,25.26,21.65,25.26,10.91,0,19.97-7.99,21.61-18.44h.46l-.31-152.88,54.29,42.68c1.95,1.01,4.12,1.53,6.32,1.53h0c2.23,0,4.43-.54,6.41-1.58l24.65-18.79.79-.44-.79,199.15c-3.4-.99-7.14-1.19-10.98-.35-8.65,1.9-15.42,9.11-16.78,17.86-2.49,16.02,12.44,29.46,28.76,24.28,5.4-1.71,10.03-5.46,12.45-10.58,2.13-4.51,2.79-9.5,1.99-13.91ZM100.33,61.24L43.64,16.58v-1.33c-.01-3.28,3.46-5.41,6.38-3.9l48.77,39.85c1.96,1.01,4.13,1.54,6.34,1.54h0c2.24,0,4.45-.54,6.43-1.58l18.18-15.4c2.92-1.53,6.43.59,6.42,3.89h0s-26.91,21.48-26.91,21.48c-2.76,1.55-6.12,1.59-8.92.12Z"/>
  <path d="M199.64,144.92c.08,7.43,1.07,14.11,2.96,20.04,1.9,5.93,4.63,10.95,8.18,15.06,3.56,4.11,7.89,7.25,12.99,9.43,5.1,2.18,10.85,3.26,17.26,3.26,13.68,0,26.6-4.78,38.78-14.35v14.94c-11.62,8.3-25.69,12.45-42.22,12.45-8.14,0-15.54-1.42-22.18-4.27s-12.29-6.98-16.96-12.39c-4.67-5.41-8.26-12.08-10.79-19.98-2.53-7.9-3.79-16.92-3.79-27.04,0-9.09,1.38-17.51,4.15-25.26,2.77-7.75,6.6-14.45,11.5-20.1,4.9-5.65,10.71-10.08,17.43-13.28,6.72-3.2,14.07-4.8,22.06-4.8s14.74,1.36,20.75,4.09c6.01,2.73,11.05,6.62,15.12,11.68,4.07,5.06,7.17,11.23,9.31,18.5,2.13,7.28,3.2,15.42,3.2,24.43v7.59h-87.76ZM271.75,131.64c-.24-12.65-3.24-22.45-9.01-29.41-5.77-6.96-13.8-10.44-24.07-10.44-5.14,0-9.9.91-14.29,2.73-4.39,1.82-8.24,4.45-11.56,7.89s-6.07,7.63-8.24,12.57c-2.18,4.94-3.7,10.5-4.57,16.66h71.75Z"/>
  <path d="M421.17,205.76c-9.01,0-17.1-1.5-24.25-4.51-7.16-3-13.26-7.25-18.32-12.75-5.06-5.49-8.94-12.08-11.62-19.75-2.69-7.67-4.03-16.17-4.03-25.5,0-10.12,1.42-19.17,4.27-27.16,2.85-7.99,6.9-14.76,12.16-20.34,5.26-5.57,11.6-9.82,19.03-12.75,7.43-2.92,15.73-4.39,24.9-4.39s16.68,1.44,23.72,4.33c7.04,2.89,13,7.06,17.91,12.51,4.9,5.46,8.66,12.1,11.27,19.92,2.61,7.83,3.91,16.72,3.91,26.68s-1.36,18.13-4.09,25.91c-2.73,7.79-6.62,14.49-11.68,20.1-5.06,5.61-11.23,9.96-18.5,13.05-7.28,3.08-15.5,4.63-24.67,4.63ZM422.36,91.8c-6.64,0-12.65,1.15-18.03,3.44-5.38,2.29-9.98,5.63-13.82,10.02-3.84,4.39-6.78,9.77-8.84,16.13-2.06,6.36-3.08,13.58-3.08,21.64,0,7.59,1.03,14.43,3.08,20.52,2.06,6.09,4.96,11.31,8.72,15.65,3.75,4.35,8.32,7.69,13.7,10.02,5.38,2.33,11.38,3.5,18.03,3.5s12.81-1.13,18.03-3.38,9.65-5.53,13.28-9.84c3.64-4.31,6.38-9.59,8.24-15.83,1.86-6.24,2.79-13.36,2.79-21.35,0-16.37-3.64-28.88-10.91-37.53-7.28-8.66-17.67-12.99-31.19-12.99Z"/>
  <path d="M595.86,202.92v-21.35h-.47c-4.03,7.67-9.78,13.62-17.26,17.85-7.47,4.23-15.95,6.34-25.44,6.34-7.59,0-14.49-1.4-20.69-4.21-6.21-2.81-11.52-6.86-15.95-12.16-4.43-5.3-7.85-11.7-10.26-19.21-2.41-7.51-3.62-16.01-3.62-25.5s1.32-18.76,3.97-26.86c2.65-8.1,6.4-15.06,11.27-20.87s10.71-10.32,17.55-13.52c6.84-3.2,14.45-4.8,22.83-4.8,17.47,0,30,7,37.59,20.99h.47V23.13h15.18v179.78h-15.18ZM595.86,129.63c0-5.3-.91-10.24-2.73-14.82-1.82-4.58-4.35-8.58-7.59-11.98-3.24-3.4-7.14-6.09-11.68-8.06-4.55-1.97-9.55-2.96-15-2.96-6.01,0-11.54,1.19-16.6,3.56-5.06,2.37-9.39,5.79-12.99,10.26-3.6,4.47-6.4,9.9-8.42,16.31s-3.02,13.68-3.02,21.82c0,7.67.91,14.55,2.73,20.63,1.82,6.09,4.41,11.23,7.77,15.42,3.36,4.19,7.37,7.39,12.04,9.61,4.66,2.21,9.84,3.32,15.54,3.32,6.17,0,11.72-1.11,16.66-3.32,4.94-2.21,9.13-5.26,12.57-9.13,3.44-3.87,6.09-8.42,7.95-13.64,1.86-5.22,2.79-10.79,2.79-16.72v-20.28Z"/>
  <path d="M685.39,224.97c-4.74,11.86-10.2,20.65-16.37,26.39-6.17,5.73-13.64,8.6-22.41,8.6-4.35,0-8.02-.52-11.03-1.54v-14.23c1.74.63,3.5,1.11,5.28,1.42,1.78.31,3.58.47,5.4.47,4.98,0,9.31-1.56,12.99-4.68,3.68-3.12,6.86-7.85,9.55-14.17l10.55-24.9-46.73-120.84h16.84l34.75,96.18c.47,1.26.93,2.71,1.36,4.33.43,1.62.85,3.22,1.25,4.8h.59c.4-1.34.77-2.71,1.13-4.09.36-1.38.85-2.91,1.48-4.57l36.88-96.65h16.01l-57.52,143.5Z"/>
  <path d="M316.11,421.91V10.96h15.77v396.6h68.31v14.35h-84.08Z"/>
  <path d="M433.87,269.75c-2.93,0-5.46-1.03-7.59-3.08-2.13-2.06-3.2-4.66-3.2-7.83s1.07-5.63,3.2-7.65,4.66-3.02,7.59-3.02c1.5,0,2.93.26,4.27.77,1.34.52,2.51,1.25,3.5,2.19s1.78,2.08,2.37,3.38.89,2.75.89,4.33-.28,2.93-.83,4.27c-.55,1.35-1.34,2.51-2.37,3.5-1.03.99-2.19,1.76-3.5,2.31-1.3.55-2.75.83-4.33.83ZM426.39,421.91v-121.44h15.18v121.44h-15.18Z"/>
  <path d="M562.66,421.91v-69.97c0-27.43-9.96-41.15-29.89-41.15-5.3,0-10.2,1.05-14.71,3.14-4.51,2.1-8.4,5-11.68,8.72-3.28,3.72-5.85,8.12-7.71,13.22-1.86,5.1-2.79,10.61-2.79,16.54v69.49h-15.18v-121.44h15.18v21.11h.47c9.01-15.97,22.57-23.96,40.68-23.96,13.28,0,23.4,4.31,30.36,12.93,6.96,8.62,10.44,21.07,10.44,37.36v74h-15.18Z"/>
  <path d="M685.87,421.91l-55.86-59.18h-.47v59.18h-15.18v-179.78h15.18v114.92h.47l53.01-56.57h19.8l-56.92,58.7,61.43,62.73h-21.47Z"/>
  <polygon points="28.56 17.67 28.56 17.74 28.47 17.69 28.56 17.67"/>
</svg>